<?xml version="1.0" standalone="no"?>
<!DOCTYPE svg PUBLIC "-//W3C//DTD SVG 20010904//EN"
 "http://www.w3.org/TR/2001/REC-SVG-20010904/DTD/svg10.dtd">
<svg version="1.0" xmlns="http://www.w3.org/2000/svg"
 width="500.000000pt" height="500.000000pt" viewBox="0 0 500.000000 500.000000"
 preserveAspectRatio="xMidYMid meet">

<g transform="translate(0.000000,500.000000) scale(0.100000,-0.100000)"
fill="#000000" stroke="none">
<path d="M110 2530 l0 -651 123 3 122 3 5 361 5 361 160 -310 c88 -170 168
-323 178 -339 l17 -29 108 3 107 3 167 330 167 330 1 -203 0 -203 123 3 122 3
0 490 0 490 -121 3 -121 3 -224 -481 -224 -481 -237 480 -237 481 -120 0 -121
0 0 -650z"/>
<path d="M2087 3173 c-7 -11 -489 -1254 -495 -1276 -4 -16 5 -17 124 -15 l129
3 125 358 c69 196 127 357 130 357 3 0 54 -138 114 -307 60 -170 117 -332 128
-360 l19 -53 125 0 c93 0 124 3 124 13 -1 26 -496 1281 -507 1284 -6 2 -13 0
-16 -4z"/>
<path d="M2664 3167 c-3 -8 -3 -56 -2 -108 l3 -94 388 -3 387 -2 0 110 0 110
-385 0 c-311 0 -387 -3 -391 -13z"/>
<path d="M4140 2775 l0 -405 120 0 120 0 0 405 0 405 -120 0 -120 0 0 -405z"/>
<path d="M2932 2298 l3 -413 120 0 120 0 3 413 2 412 -125 0 -125 0 2 -412z"/>
<path d="M4140 2000 l0 -120 355 0 355 0 0 120 0 120 -355 0 -355 0 0 -120z"/>
<path d="M3550 2097 c-13 -7 -35 -28 -48 -47 -31 -45 -24 -92 18 -135 26 -25
38 -30 79 -30 57 0 93 26 111 81 29 86 -77 173 -160 131z"/>
</g>
</svg>
